<svg xmlns="http://www.w3.org/2000/svg" viewBox="0 0 600 400" width="600" height="400">
  <defs>
    <linearGradient id="bgS" x1="0%" y1="0%" x2="100%" y2="100%">
      <stop offset="0%" style="stop-color:#f0fdf4;stop-opacity:1" />
      <stop offset="100%" style="stop-color:#dcfce7;stop-opacity:1" />
    </linearGradient>
  </defs>
  <rect width="600" height="400" fill="url(#bgS)" rx="20"/>
  <!-- Bin -->
  <rect x="200" y="120" width="200" height="160" rx="12" fill="#e63946"/>
  <rect x="190" y="110" width="220" height="30" rx="10" fill="#c1121f"/>
  <!-- Items in bin -->
  <rect x="220" y="180" width="40" height="50" rx="6" fill="#f4a261"/>
  <rect x="280" y="170" width="35" height="45" rx="6" fill="#253998"/>
  <rect x="330" y="190" width="30" height="35" rx="6" fill="#fbbf24"/>
  <rect x="250" y="220" width="50" height="40" rx="6" fill="#7b2ff7"/>
  <circle cx="240" cy="200" r="8" fill="#fff" opacity="0.5"/>
  <circle cx="310" cy="195" r="6" fill="#fff" opacity="0.4"/>
  <!-- Tags -->
  <rect x="60" y="80" width="80" height="32" rx="16" fill="#e63946"/>
  <text x="100" y="101" text-anchor="middle" font-family="Arial" font-size="14" font-weight="bold" fill="white">$1</text>
  <rect x="460" y="90" width="80" height="32" rx="16" fill="#f4a261"/>
  <text x="500" y="111" text-anchor="middle" font-family="Arial" font-size="14" font-weight="bold" fill="white">$10</text>
  <rect x="80" y="300" width="90" height="32" rx="16" fill="#253998"/>
  <text x="125" y="321" text-anchor="middle" font-family="Arial" font-size="14" font-weight="bold" fill="white">$7</text>
  <rect x="440" y="280" width="80" height="32" rx="16" fill="#e63946"/>
  <text x="480" y="301" text-anchor="middle" font-family="Arial" font-size="14" font-weight="bold" fill="white">$2</text>
  <!-- Text -->
  <text x="300" y="360" text-anchor="middle" font-family="Arial" font-size="28" font-weight="bold" fill="#1e293b">FILL YOUR CART!</text>
  <text x="300" y="385" text-anchor="middle" font-family="Arial" font-size="15" fill="#64748b">Crazy prices • New drops every week</text>
</svg>
