<svg xmlns="http://www.w3.org/2000/svg" viewBox="0 0 600 400" width="600" height="400">
  <defs>
    <linearGradient id="savingsBg" x1="0%" y1="0%" x2="100%" y2="100%">
      <stop offset="0%" style="stop-color:#fef2f2;stop-opacity:1" />
      <stop offset="100%" style="stop-color:#fee2e2;stop-opacity:1" />
    </linearGradient>
  </defs>
  <rect width="600" height="400" fill="url(#savingsBg)" rx="20"/>
  <!-- Piggy bank -->
  <ellipse cx="300" cy="200" rx="80" ry="60" fill="#f4a261"/>
  <ellipse cx="300" cy="200" rx="70" ry="50" fill="#fbbf24"/>
  <!-- Ear -->
  <ellipse cx="240" cy="145" rx="15" ry="20" fill="#f4a261"/>
  <ellipse cx="360" cy="145" rx="15" ry="20" fill="#f4a261"/>
  <!-- Snout -->
  <ellipse cx="300" cy="225" rx="20" ry="14" fill="#f59e0b"/>
  <circle cx="293" cy="223" r="3" fill="#92400e"/>
  <circle cx="307" cy="223" r="3" fill="#92400e"/>
  <!-- Eye -->
  <circle cx="278" cy="185" r="6" fill="#1e293b"/>
  <circle cx="322" cy="185" r="6" fill="#1e293b"/>
  <!-- Coin slot -->
  <rect x="290" y="155" width="20" height="8" rx="4" fill="#92400e" opacity="0.5"/>
  <!-- Arm -->
  <path d="M240,210 Q200,200 190,220" stroke="#f4a261" stroke-width="8" stroke-linecap="round" fill="none"/>
  <!-- Coins -->
  <circle cx="150" cy="160" r="14" fill="#fbbf24" stroke="#f59e0b" stroke-width="2"/>
  <text x="150" y="165" text-anchor="middle" font-size="12" fill="#92400e">¢</text>
  <circle cx="460" cy="180" r="14" fill="#fbbf24" stroke="#f59e0b" stroke-width="2"/>
  <text x="460" y="185" text-anchor="middle" font-size="12" fill="#92400e">$</text>
  <circle cx="120" cy="200" r="10" fill="#fbbf24" stroke="#f59e0b" stroke-width="2"/>
  <circle cx="470" cy="220" r="10" fill="#fbbf24" stroke="#f59e0b" stroke-width="2"/>
  <circle cx="140" cy="240" r="8" fill="#fbbf24" stroke="#f59e0b" stroke-width="2"/>
  <circle cx="440" cy="255" r="8" fill="#fbbf24" stroke="#f59e0b" stroke-width="2"/>
  <!-- Text -->
  <text x="300" y="330" text-anchor="middle" font-family="Arial" font-size="28" font-weight="bold" fill="#1e293b">NEVER PAY RETAIL AGAIN</text>
  <text x="300" y="358" text-anchor="middle" font-family="Arial" font-size="16" fill="#64748b">Save big on everything at BSW Outlet</text>
</svg>
